<?xml version="1.0" standalone="no"?>
<!DOCTYPE svg PUBLIC "-//W3C//DTD SVG 20010904//EN"
 "http://www.w3.org/TR/2001/REC-SVG-20010904/DTD/svg10.dtd">
<svg version="1.0" xmlns="http://www.w3.org/2000/svg"
 width="126.000000pt" height="126.000000pt" viewBox="0 0 126.000000 126.000000"
 preserveAspectRatio="xMidYMid meet">
<metadata>
Created by potrace 1.14, written by Peter Selinger 2001-2017
</metadata>
<g transform="translate(0.000000,126.000000) scale(0.100000,-0.100000)"
fill="#000000" stroke="none">
<path d="M463 1225 c-18 -8 -33 -18 -34 -22 -5 -44 -2 -68 9 -65 6 1 12 -5 12
-13 0 -9 7 -18 15 -21 20 -8 19 -33 -2 -56 -14 -16 -14 -18 -1 -18 9 0 30 -19
48 -43 51 -65 97 -97 141 -97 32 0 37 -3 32 -17 -3 -10 -3 -15 2 -11 4 4 17 3
29 -3 21 -10 21 -10 1 6 -11 9 -18 19 -15 23 3 4 -6 8 -20 10 -53 6 -67 12
-78 37 -7 15 -8 24 -2 20 5 -3 3 7 -5 22 -14 26 -13 29 5 37 11 5 20 12 20 16
0 11 -33 37 -58 45 -17 5 -22 12 -17 23 4 10 8 43 9 75 2 51 1 57 -15 52 -9
-3 -20 -1 -24 5 -8 13 -13 12 -52 -5z m80 -81 c8 -8 -11 -44 -23 -44 -14 0
-41 31 -35 41 7 10 48 12 58 3z"/>
<path d="M778 1065 c-2 -3 -22 -6 -44 -9 -21 -2 -55 -10 -74 -19 l-35 -15 56
5 c45 4 57 2 62 -11 4 -9 1 -16 -6 -16 -9 0 -9 -3 1 -9 7 -4 14 -20 16 -34 1
-15 6 -30 9 -34 4 -3 7 -15 7 -24 0 -18 2 -18 48 0 55 22 60 36 38 109 -8 28
-12 53 -9 56 4 3 -9 6 -29 6 -19 0 -37 -2 -40 -5z"/>
<path d="M629 983 c-13 -16 -12 -17 4 -4 9 7 17 15 17 17 0 8 -8 3 -21 -13z"/>
<path d="M499 894 c12 -15 36 -36 54 -47 18 -10 49 -37 69 -60 l37 -42 1 37
c0 37 -2 39 -64 67 -35 16 -66 34 -70 40 -4 6 -17 16 -28 22 -21 11 -21 11 1
-17z"/>
<path d="M500 834 c0 -5 11 -26 25 -46 42 -62 34 -90 -57 -184 -33 -34 -46
-54 -38 -59 6 -4 15 -18 20 -31 8 -20 16 -24 53 -24 24 0 47 3 50 7 11 10 -13
32 -29 26 -30 -11 -12 26 35 76 57 59 57 59 82 -44 16 -69 17 -70 47 -69 17 1
39 9 47 18 9 9 22 16 29 16 21 0 49 38 42 55 -5 15 -10 13 -37 -9 -27 -23 -40
-28 -65 -25 -3 0 -12 -7 -19 -17 -11 -15 -14 -11 -25 37 -7 30 -24 77 -37 105
-25 51 -123 186 -123 168z"/>
<path d="M130 374 c0 -10 73 -179 82 -188 12 -15 36 -16 47 -2 11 13 81 176
81 188 0 4 -9 8 -20 8 -20 0 -34 -23 -72 -120 -9 -23 -12 -20 -40 48 -26 60
-35 72 -54 72 -13 0 -24 -3 -24 -6z"/>
<path d="M362 278 c2 -83 6 -103 18 -103 25 -1 30 17 29 113 -1 91 -1 92 -25
92 l-25 0 3 -102z"/>
<path d="M478 373 c-9 -2 -21 -17 -28 -33 -17 -40 1 -67 53 -81 54 -14 57 -17
50 -34 -6 -17 -40 -19 -76 -6 -20 8 -27 6 -31 -5 -9 -23 0 -31 40 -38 53 -10
92 1 108 32 22 44 6 67 -64 87 -54 16 -46 40 13 39 38 0 47 3 47 17 0 9 -7 20
-16 23 -17 7 -69 6 -96 -1z"/>
<path d="M658 351 c-28 -25 -33 -36 -33 -75 0 -66 37 -101 105 -101 55 0 94
25 72 47 -9 9 -18 9 -38 -1 -60 -27 -114 31 -83 88 16 29 61 40 85 20 11 -9
18 -9 30 2 15 12 14 15 -6 31 -35 28 -94 24 -132 -11z"/>
<path d="M847 373 c-7 -11 -4 -193 2 -194 3 0 14 -2 24 -4 15 -3 17 7 17 101
0 96 -1 104 -19 104 -11 0 -22 -3 -24 -7z"/>
<path d="M960 353 c-92 -85 9 -223 123 -168 73 34 77 144 8 180 -47 24 -96 19
-131 -12z m113 -30 c29 -33 26 -77 -8 -99 -51 -34 -109 19 -86 79 15 39 66 50
94 20z"/>
<path d="M192 98 c-29 -29 -2 -73 40 -65 20 4 20 4 -5 6 -32 1 -45 25 -28 52
13 22 10 24 -7 7z"/>
<path d="M220 106 c0 -2 7 -7 16 -10 8 -3 12 -2 9 4 -6 10 -25 14 -25 6z"/>
<path d="M340 105 c0 -6 5 -16 12 -23 9 -9 7 -17 -7 -34 -19 -23 -19 -23 0 -6
18 17 20 17 39 0 19 -17 19 -17 3 7 -16 23 -15 26 1 45 17 21 17 21 -5 3 -20
-18 -22 -18 -32 0 -6 10 -11 13 -11 8z"/>
<path d="M483 81 c-2 -26 -2 -26 9 -3 12 25 53 30 61 8 10 -25 -17 -50 -46
-42 -22 5 -27 3 -26 -11 0 -10 3 -13 5 -7 3 6 15 9 28 7 31 -6 60 31 45 59 -7
13 -19 18 -42 16 -28 -1 -33 -6 -34 -27z"/>
<path d="M653 70 c0 -25 2 -35 4 -22 2 12 2 32 0 45 -2 12 -4 2 -4 -23z"/>
<path d="M772 98 c-15 -15 -15 -41 0 -56 14 -14 44 -16 52 -3 3 4 -5 6 -18 4
-27 -6 -45 15 -25 28 11 7 11 9 1 9 -7 0 -10 5 -6 11 3 6 17 9 30 6 13 -2 21
0 18 4 -8 13 -38 11 -52 -3z"/>
<path d="M917 95 c-6 -15 10 -32 20 -21 4 3 1 6 -7 6 -10 0 -10 3 0 15 7 9 8
15 2 15 -5 0 -12 -7 -15 -15z"/>
<path d="M1055 100 c-8 -13 3 -30 18 -29 9 0 9 2 0 6 -22 8 -14 21 15 26 l27
4 -27 2 c-15 0 -30 -3 -33 -9z"/>
<path d="M208 73 c7 -3 16 -2 19 1 4 3 -2 6 -13 5 -11 0 -14 -3 -6 -6z"/>
<path d="M960 60 c13 -8 13 -9 0 -14 -43 -13 -44 -14 -24 -15 12 -1 27 5 33
12 11 14 5 27 -13 27 -6 0 -4 -4 4 -10z"/>
<path d="M1096 56 c4 -9 -3 -16 -18 -19 -22 -5 -22 -5 2 -4 24 2 44 37 21 37
-6 0 -8 -6 -5 -14z"/>
</g>
</svg>
